<?xml version="1.0" standalone="no"?>
<!DOCTYPE svg PUBLIC "-//W3C//DTD SVG 20010904//EN"
 "http://www.w3.org/TR/2001/REC-SVG-20010904/DTD/svg10.dtd">
<svg version="1.0" xmlns="http://www.w3.org/2000/svg"
 width="1486.000000pt" height="501.000000pt" viewBox="0 0 1486.000000 501.000000"
 preserveAspectRatio="xMidYMid meet">

<g transform="translate(0.000000,501.000000) scale(0.100000,-0.100000)"
fill="#000000" stroke="none">
<path d="M4155 4286 c-109 -113 -174 -337 -161 -561 9 -164 50 -323 133 -510
96 -216 154 -369 184 -482 28 -104 32 -135 32 -258 1 -146 -11 -217 -53 -313
-26 -59 -32 -51 -13 18 10 36 16 98 16 180 0 225 -39 350 -230 726 -156 308
-204 433 -229 596 -34 222 19 454 134 589 l36 41 -35 -7 c-67 -15 -194 -66
-263 -106 -100 -59 -267 -230 -325 -331 -135 -240 -190 -477 -178 -768 5 -147
33 -299 74 -415 109 -301 322 -541 566 -635 149 -58 313 -77 383 -44 137 65
224 329 195 596 -19 176 -67 335 -181 597 -136 316 -164 421 -163 621 0 113 5
162 21 222 18 67 66 178 76 178 2 0 -5 -33 -15 -72 -43 -162 -33 -358 27 -548
15 -47 93 -215 174 -375 194 -385 233 -509 233 -735 -1 -197 -53 -353 -151
-452 -25 -27 -43 -48 -38 -48 4 0 44 9 89 21 371 95 646 420 731 864 65 345
-8 750 -184 1010 -178 265 -442 422 -743 442 l-98 6 -44 -47z"/>
<path d="M10843 4275 c-242 -44 -424 -167 -513 -349 -55 -110 -73 -203 -67
-336 8 -168 57 -280 167 -383 111 -105 203 -144 563 -238 249 -65 325 -94 376
-142 44 -42 61 -84 61 -149 -1 -148 -134 -227 -365 -215 -195 10 -410 92 -581
223 -47 36 -90 62 -94 57 -4 -4 -49 -66 -100 -138 -51 -71 -104 -142 -118
-157 l-26 -28 40 -35 c152 -136 393 -250 624 -296 134 -27 389 -32 500 -11
286 55 473 200 551 425 56 160 46 349 -26 494 -92 186 -266 287 -665 388 -319
80 -403 129 -431 251 -23 99 27 186 129 225 80 30 257 23 387 -16 102 -30 243
-94 329 -149 65 -42 60 -44 103 39 14 28 57 106 96 174 38 68 65 126 60 130
-242 170 -507 252 -809 250 -66 0 -151 -7 -191 -14z"/>
<path d="M1240 3180 l0 -1080 225 0 225 0 2 405 3 405 538 1 537 1 0 199 0
199 -535 0 -535 0 -1 213 c0 116 -3 236 -5 265 l-5 52 606 0 605 0 0 210 0
210 -830 0 -830 0 0 -1080z"/>
<path d="M5744 4251 c-2 -2 -4 -487 -4 -1078 l0 -1073 230 0 230 0 0 330 0
330 213 0 212 -1 46 -67 c25 -37 126 -185 225 -329 l179 -262 268 -1 268 0
-12 23 c-7 12 -85 126 -173 252 -290 414 -315 450 -316 459 -1 5 19 17 44 26
69 27 180 105 237 168 136 152 199 338 186 552 -8 120 -27 194 -76 295 -95
193 -258 305 -526 362 -70 15 -154 17 -653 17 -316 1 -576 -1 -578 -3z m1153
-434 c76 -25 145 -85 179 -154 26 -52 29 -68 29 -158 0 -89 -3 -106 -28 -157
-34 -69 -90 -120 -166 -150 -53 -22 -72 -23 -383 -26 l-328 -3 0 336 0 337
323 -4 c268 -4 331 -7 374 -21z"/>
<path d="M8120 3180 l0 -1080 845 0 845 0 0 200 0 200 -621 2 -621 3 1 235 1
235 551 3 551 2 -6 31 c-3 17 -6 107 -6 200 l0 169 -545 0 -545 0 0 235 0 235
610 0 610 0 0 205 0 205 -835 0 -835 0 0 -1080z"/>
<path d="M12154 4247 c-2 -7 -3 -99 -2 -205 l3 -193 353 1 352 0 0 -875 0
-875 230 0 230 0 0 198 c0 108 0 500 0 870 l0 672 355 0 355 0 0 210 0 210
-935 0 c-751 0 -937 -3 -941 -13z"/>
<path d="M5230 963 l0 -453 267 0 c316 0 355 7 433 77 127 114 97 325 -55 383
l-27 10 33 23 c50 33 79 97 79 174 0 79 -16 118 -67 164 -68 62 -104 68 -401
71 l-262 3 0 -452z m501 271 c54 -28 69 -102 30 -148 -31 -37 -74 -46 -216
-46 l-135 0 0 105 0 105 145 0 c113 0 153 -4 176 -16z m70 -382 c50 -56 36
-133 -31 -167 -22 -12 -67 -15 -195 -15 l-165 0 0 111 0 110 181 -3 181 -3 29
-33z"/>
<path d="M6420 967 c0 -250 2 -456 4 -458 2 -2 44 -2 93 1 l88 5 -1 137 -2
137 101 3 c59 2 104 -1 109 -7 5 -5 46 -68 91 -140 l83 -130 109 -3 108 -3
-16 23 c-20 28 -181 279 -185 289 -1 3 11 12 28 19 45 19 116 103 135 161 12
36 16 74 13 132 -4 93 -23 141 -76 195 -75 75 -161 92 -469 92 l-213 0 0 -453z
m513 260 c90 -58 88 -199 -3 -252 -31 -17 -52 -20 -172 -20 -75 0 -138 2 -141
5 -3 3 -7 70 -9 148 l-4 144 151 -4 c125 -2 156 -6 178 -21z"/>
<path d="M7620 965 l0 -455 355 0 355 0 0 80 0 80 -265 0 -265 0 0 105 0 105
219 0 c121 0 226 3 235 6 13 5 16 22 16 80 l0 74 -235 0 -235 0 0 105 0 105
260 0 260 0 0 85 0 85 -350 0 -350 0 0 -455z"/>
<path d="M8660 1413 c0 -15 266 -824 295 -896 6 -15 19 -17 94 -15 l86 3 57
160 c32 88 79 222 105 298 26 75 49 137 52 137 4 0 43 -115 89 -256 46 -140
92 -275 102 -300 l19 -44 85 0 c48 0 88 5 91 10 9 15 305 889 305 901 0 6 -39
9 -97 7 l-96 -3 -83 -255 c-46 -140 -91 -283 -100 -318 -9 -34 -20 -60 -23
-56 -3 3 -51 146 -106 317 l-101 312 -84 0 -85 0 -106 -315 c-59 -173 -109
-308 -112 -300 -3 8 -44 141 -92 295 -47 154 -90 290 -95 303 -9 21 -15 22
-105 22 -52 0 -95 -3 -95 -7z"/>
</g>
</svg>
